<svg width="75" height="30" viewBox="0 0 75 30" fill="none" xmlns="http://www.w3.org/2000/svg">
<path d="M69.5283 20.5101H70V26.243H69.6096L65.9748 21.3558V26.243H65.5031V20.5101H65.9016L69.5283 25.3892V20.5101Z" fill="black"/>
<path d="M63.0252 26.243L62.3665 24.7142H59.2764L58.6178 26.243H58.1055L60.5938 20.5101H61.0492L63.5375 26.243H63.0252ZM59.4635 24.2751H62.1795L60.8215 21.1037L59.4635 24.2751Z" fill="black"/>
<path d="M55.7161 20.5101H56.1389V26.243H55.6673V21.5103L53.6587 25.3404H53.2847L51.2599 21.5428L51.268 26.243H50.7882V20.5101H51.2111L53.4798 24.8525L55.7161 20.5101Z" fill="black"/>
<path d="M47.7965 20.5101H48.2925V26.243H47.7965V23.5514H44.1372V26.243H43.6412V20.5101H44.1372V23.1123H47.7965V20.5101Z" fill="black"/>
<path d="M39.5041 26.308C38.9728 26.308 38.512 26.1915 38.1217 25.9584C37.7314 25.7198 37.4305 25.381 37.2191 24.9419C37.0076 24.4974 36.9019 23.9742 36.9019 23.3725C36.9019 22.7707 37.0076 22.2503 37.2191 21.8112C37.4305 21.3666 37.7314 21.0278 38.1217 20.7947C38.512 20.5616 38.9728 20.445 39.5041 20.445C39.8998 20.445 40.263 20.5074 40.5937 20.6321C40.9244 20.7568 41.2117 20.9438 41.4557 21.1932L41.2443 21.5916C40.9732 21.3422 40.6994 21.1633 40.423 21.0549C40.1519 20.9465 39.8483 20.8923 39.5122 20.8923C38.8508 20.8923 38.3358 21.1091 37.9672 21.5428C37.604 21.9765 37.4223 22.5864 37.4223 23.3725C37.4223 24.164 37.604 24.7766 37.9672 25.2102C38.3304 25.6439 38.8454 25.8608 39.5122 25.8608C39.8483 25.8608 40.1519 25.8066 40.423 25.6982C40.6994 25.5897 40.9732 25.4108 41.2443 25.1615L41.4557 25.5599C41.2117 25.8093 40.9244 25.9963 40.5937 26.121C40.263 26.2457 39.8998 26.308 39.5041 26.308Z" fill="black"/>
<path d="M32.9464 26.308C32.4964 26.308 32.098 26.2484 31.751 26.1291C31.404 26.0044 31.095 25.8147 30.824 25.5599L31.0354 25.1615C31.3227 25.4163 31.61 25.5979 31.8974 25.7063C32.1901 25.8093 32.5398 25.8608 32.9464 25.8608C33.4289 25.8608 33.8029 25.7632 34.0685 25.568C34.3396 25.3675 34.4751 25.0883 34.4751 24.7305C34.4751 24.519 34.4101 24.3483 34.28 24.2182C34.1499 24.0826 33.9845 23.9796 33.7839 23.9092C33.5834 23.8333 33.315 23.7574 32.9789 23.6815C32.5344 23.5839 32.1738 23.4836 31.8974 23.3806C31.6263 23.2776 31.3959 23.1231 31.2062 22.9171C31.0164 22.7057 30.9216 22.4238 30.9216 22.0714C30.9216 21.7461 31.0056 21.4615 31.1736 21.2176C31.3417 20.9736 31.5775 20.7839 31.8811 20.6483C32.1901 20.5128 32.5506 20.445 32.9626 20.445C33.353 20.445 33.7135 20.5101 34.0441 20.6402C34.3803 20.7649 34.6703 20.9492 34.9142 21.1932L34.7028 21.5916C34.4318 21.3477 34.158 21.1715 33.8815 21.0631C33.605 20.9492 33.2987 20.8923 32.9626 20.8923C32.4801 20.8923 32.1034 20.9953 31.8323 21.2013C31.5613 21.4073 31.4257 21.6946 31.4257 22.0633C31.4257 22.3831 31.5423 22.6216 31.7754 22.7789C32.0139 22.9306 32.3609 23.0608 32.8163 23.1692L33.0277 23.218C33.4668 23.3264 33.8138 23.4267 34.0685 23.5188C34.3233 23.611 34.5375 23.7547 34.711 23.9498C34.8899 24.1396 34.9793 24.3971 34.9793 24.7223C34.9793 25.0368 34.8953 25.3132 34.7272 25.5518C34.5592 25.7903 34.3206 25.9773 34.0116 26.1129C33.708 26.243 33.353 26.308 32.9464 26.308Z" fill="black"/>
<path d="M26.974 26.243V20.9492H24.9166V20.5101H29.5192V20.9492H27.47V26.243H26.974Z" fill="black"/>
<path d="M20.8774 26.308C20.1455 26.308 19.5899 26.1156 19.2104 25.7307C18.8363 25.3458 18.6493 24.7793 18.6493 24.0312V20.5101H19.1535V24.0881C19.1535 25.2699 19.7281 25.8608 20.8774 25.8608C21.4466 25.8608 21.8749 25.7117 22.1622 25.4135C22.455 25.1154 22.6013 24.6736 22.6013 24.0881V20.5101H23.0974V24.0312C23.0974 24.7793 22.9076 25.3458 22.5281 25.7307C22.1541 26.1156 21.6038 26.308 20.8774 26.308Z" fill="black"/>
<path d="M12.9644 26.243V20.5101H16.5017V20.9411H13.4605V23.1123H16.3391V23.5514H13.4605V25.812H16.5017V26.243H12.9644Z" fill="black"/>
<path d="M6 20.5101H7.84591C8.75666 20.5101 9.45871 20.7595 9.95203 21.2582C10.4454 21.7515 10.692 22.4563 10.692 23.3725C10.692 24.2887 10.4426 24.9961 9.9439 25.4949C9.45057 25.9936 8.75124 26.243 7.84591 26.243H6V20.5101ZM7.82151 25.8039C8.59674 25.8039 9.17952 25.6006 9.56984 25.194C9.96559 24.7874 10.1635 24.1802 10.1635 23.3725C10.1635 21.757 9.38281 20.9492 7.82151 20.9492H6.50417V25.8039H7.82151Z" fill="black"/>
<path d="M65.1076 18C64.0248 18 63.0659 17.8576 62.2309 17.5728C61.3959 17.2751 60.6523 16.822 60 16.2136L60.5088 15.2621C61.2003 15.8706 61.8917 16.3042 62.5832 16.5631C63.2877 16.8091 64.1292 16.932 65.1076 16.932C66.2688 16.932 67.169 16.699 67.8082 16.233C68.4605 15.754 68.7867 15.0874 68.7867 14.233C68.7867 13.7282 68.6301 13.3204 68.317 13.0097C68.0039 12.6861 67.606 12.4401 67.1233 12.2718C66.6406 12.0906 65.9948 11.9094 65.1859 11.7282C64.1161 11.4951 63.2485 11.2557 62.5832 11.0097C61.9309 10.7638 61.3764 10.3948 60.9198 9.90291C60.4631 9.39806 60.2348 8.72492 60.2348 7.8835C60.2348 7.1068 60.437 6.42719 60.8415 5.84466C61.2459 5.26214 61.8134 4.80906 62.544 4.48544C63.2877 4.16181 64.1552 4 65.1468 4C66.0861 4 66.9537 4.15534 67.7495 4.46602C68.5584 4.76376 69.2564 5.20388 69.8434 5.78641L69.3346 6.73786C68.6823 6.15534 68.0235 5.73463 67.3581 5.47573C66.6928 5.20388 65.9556 5.06796 65.1468 5.06796C63.9856 5.06796 63.0789 5.31392 62.4266 5.80583C61.7743 6.29774 61.4481 6.98382 61.4481 7.86408C61.4481 8.62783 61.7286 9.19741 62.2896 9.57282C62.8637 9.93528 63.6986 10.246 64.7945 10.5049L65.3033 10.6214C66.3601 10.8803 67.195 11.1197 67.8082 11.3398C68.4214 11.5599 68.9367 11.9029 69.3542 12.3689C69.7847 12.822 70 13.4369 70 14.2136C70 14.9644 69.7978 15.6246 69.3933 16.1942C68.9889 16.7638 68.4149 17.2104 67.6712 17.534C66.9406 17.8447 66.0861 18 65.1076 18Z" fill="black"/>
<path d="M55 18V4H56V18H55Z" fill="black"/>
<path d="M50.7703 4H52L46.0465 18H44.9535L39 4H40.2492L45.5195 16.4312L50.7703 4Z" fill="black"/>
<path d="M36 18V4H37V18H36Z" fill="black"/>
<path d="M30.774 18L29.1976 14.2667H21.8024L20.2261 18H19L24.9551 4H26.0449L32 18H30.774ZM22.25 13.1943H28.75L25.5 5.44965L22.25 13.1943Z" fill="black"/>
<path d="M17 18H15.6148L13.1907 13.5121C12.8648 12.9031 12.4846 12.4861 12.05 12.261C11.6154 12.0359 11.0179 11.9234 10.2574 11.9234H7.26296V18H6V4H11.7444C13.2519 4 14.413 4.33759 15.2278 5.01277C16.0426 5.6747 16.45 6.64775 16.45 7.93191C16.45 9.01749 16.1241 9.89125 15.4722 10.5532C14.8339 11.2019 13.9173 11.5991 12.7222 11.7447C13.0753 11.8506 13.3877 12.0359 13.6593 12.3007C13.9444 12.5522 14.2025 12.8898 14.4333 13.3135L17 18ZM11.663 10.8709C14.0259 10.8709 15.2074 9.88463 15.2074 7.91206C15.2074 6.94563 14.9154 6.23073 14.3315 5.76737C13.7475 5.29078 12.858 5.05248 11.663 5.05248H7.24259V10.8709H11.663Z" fill="black"/>
</svg>
